<svg xmlns="http://www.w3.org/2000/svg" viewBox="0 0 800 800">
    <!-- Western Province -->
    <path id="Western" d="M100,100 L200,100 L200,200 L100,200 Z" fill="#cccccc" stroke="#000000" stroke-width="2"/>
    <!-- Central Province -->
    <path id="Central" d="M210,100 L310,100 L310,200 L210,200 Z" fill="#cccccc" stroke="#000000" stroke-width="2"/>
    <!-- Southern Province -->
    <path id="Southern" d="M320,100 L420,100 L420,200 L320,200 Z" fill="#cccccc" stroke="#000000" stroke-width="2"/>
    <!-- Northern Province -->
    <path id="Northern" d="M430,100 L530,100 L530,200 L430,200 Z" fill="#cccccc" stroke="#000000" stroke-width="2"/>
    <!-- Eastern Province -->
    <path id="Eastern" d="M540,100 L640,100 L640,200 L540,200 Z" fill="#cccccc" stroke="#000000" stroke-width="2"/>
    <!-- North Western Province -->
    <path id="North_Western" d="M100,210 L200,210 L200,310 L100,310 Z" fill="#cccccc" stroke="#000000" stroke-width="2"/>
    <!-- North Central Province -->
    <path id="North_Central" d="M210,210 L310,210 L310,310 L210,310 Z" fill="#cccccc" stroke="#000000" stroke-width="2"/>
    <!-- Uva Province -->
    <path id="Uva" d="M320,210 L420,210 L420,310 L320,310 Z" fill="#cccccc" stroke="#000000" stroke-width="2"/>
    <!-- Sabaragamuwa Province -->
    <path id="Sabaragamuwa" d="M430,210 L530,210 L530,310 L430,310 Z" fill="#cccccc" stroke="#000000" stroke-width="2"/>
</svg>
